<?xml version="1.0" standalone="no"?>
<!DOCTYPE svg PUBLIC "-//W3C//DTD SVG 20010904//EN"
 "http://www.w3.org/TR/2001/REC-SVG-20010904/DTD/svg10.dtd">
<svg version="1.0" xmlns="http://www.w3.org/2000/svg"
 width="512.000000pt" height="512.000000pt" viewBox="0 0 512.000000 512.000000"
 preserveAspectRatio="xMidYMid meet">

<g transform="translate(0.000000,512.000000) scale(0.100000,-0.100000)"
fill="#000000" stroke="none">
<path d="M2345 5050 c-823 -49 -1567 -504 -1996 -1222 -171 -286 -280 -601
-331 -963 -16 -117 -16 -493 0 -610 76 -533 275 -967 625 -1363 369 -417 908
-710 1466 -797 267 -41 595 -36 860 15 547 104 1066 408 1425 834 307 363 499
789 573 1266 25 161 25 539 0 700 -42 270 -117 512 -232 746 -446 907 -1384
1454 -2390 1394z m483 -466 c49 -20 90 -60 113 -109 17 -37 19 -71 19 -404 0
-352 -1 -366 -21 -409 -17 -33 -59 -75 -180 -176 -163 -136 -198 -156 -276
-156 -61 0 -116 34 -270 168 -196 171 -183 131 -183 568 0 231 4 359 11 385
16 52 60 102 111 128 41 20 58 21 341 21 246 0 304 -3 335 -16z m-1695 -700
c53 -27 550 -315 580 -337 58 -40 75 -84 113 -298 43 -245 40 -274 -35 -349
-42 -41 -62 -51 -216 -104 -203 -71 -268 -80 -336 -46 -24 13 -161 90 -304
172 -285 164 -334 202 -354 282 -6 25 -8 64 -5 86 7 41 266 504 307 548 56 60
178 82 250 46z m2915 -3 c56 -29 71 -49 197 -266 169 -289 169 -290 169 -360
-1 -66 -17 -107 -62 -151 -26 -26 -415 -256 -576 -341 -94 -50 -130 -46 -349
33 -100 36 -197 77 -216 91 -38 29 -81 113 -81 160 0 18 16 114 35 215 39 202
58 247 122 290 50 34 556 326 585 338 41 16 136 11 176 -9z m-1412 -933 c346
-127 370 -604 39 -759 -253 -119 -541 30 -588 305 -52 308 255 562 549 454z
m-1056 -628 c152 -56 181 -70 217 -106 42 -43 63 -92 63 -150 0 -58 -68 -381
-89 -422 -11 -22 -35 -52 -53 -65 -31 -23 -515 -305 -585 -341 -72 -36 -195
-14 -250 46 -42 44 -300 507 -307 548 -10 62 11 125 58 175 38 41 173 124 536
327 103 58 106 59 170 55 49 -2 109 -19 240 -67z m2179 47 c53 -28 543 -310
574 -332 61 -43 98 -148 78 -222 -12 -42 -252 -466 -295 -520 -43 -54 -97 -76
-175 -71 -65 3 -72 7 -351 168 -157 90 -298 173 -313 184 -54 39 -74 90 -107
271 -37 203 -40 267 -12 321 39 76 70 94 305 174 167 58 224 63 296 27z
m-1174 -596 c67 -30 330 -264 354 -314 20 -42 21 -59 21 -408 0 -402 -2 -410
-66 -471 -59 -55 -77 -58 -401 -58 -281 0 -299 1 -340 21 -51 25 -96 76 -112
128 -7 26 -11 154 -11 385 0 440 -13 399 189 569 80 67 166 132 190 145 54 27
121 28 176 3z"/>
<path d="M4274 599 c-37 -42 -221 -184 -329 -255 -128 -84 -302 -177 -430
-229 -49 -21 -92 -39 -94 -41 -2 -2 379 -4 847 -4 l852 0 0 275 0 275 -413 0
c-409 0 -414 0 -433 -21z"/>
</g>
</svg>
